<svg version="1.1" width="260" height="63" viewBox="-1 -1 260 63" xmlns="http://www.w3.org/2000/svg" xmlns:xlink="http://www.w3.org/1999/xlink">
  <!-- Exported by Scratch - http://scratch.mit.edu/ -->
  <g id="ID0.8613115292973816">
    <path id="ID0.3863670090213418" fill="#0071BC" d="M 185.500 120.800 L 182.500 120.800 C 182.500 120.700 182.500 120.600 182.500 120.400 C 182.500 120.300 182.500 120.100 182.500 120 C 182.500 119.900 182.500 119.700 182.500 119.600 C 182.500 119.500 182.500 119.300 182.500 119.200 L 190.100 119.200 C 190.100 119.300 190.100 119.400 190.100 119.600 C 190.100 119.700 190.100 119.800 190.100 120 C 190.100 120.100 190.100 120.300 190.100 120.400 C 190.100 120.500 190.100 120.700 190.100 120.800 L 187.100 120.800 L 187.100 131.500 C 186.900 131.500 186.600 131.600 186.300 131.600 C 186 131.600 185.700 131.600 185.500 131.500 L 185.500 120.800 Z " transform="matrix(1, 0, 0, 1, -182, -119)"/>
    <path id="ID0.4478969033807516" fill="#0071BC" d="M 196.200 131.700 C 195.400 131.700 194.700 131.500 194 131.200 C 193.400 130.900 192.900 130.500 192.500 129.900 C 192.100 129.300 191.800 128.700 191.600 127.900 C 191.400 127.100 191.300 126.300 191.300 125.400 C 191.300 124.500 191.400 123.600 191.600 122.900 C 191.800 122.100 192.100 121.500 192.500 120.900 C 192.900 120.300 193.400 119.900 194 119.600 C 194.600 119.300 195.300 119.100 196.200 119.100 C 197 119.100 197.700 119.300 198.400 119.600 C 199 119.900 199.500 120.400 199.900 120.900 C 200.300 121.500 200.600 122.100 200.800 122.900 C 201 123.700 201.100 124.500 201.100 125.400 C 201.100 126.300 201 127.200 200.800 127.900 C 200.600 128.700 200.300 129.300 199.900 129.900 C 199.500 130.500 199 130.900 198.400 131.200 C 197.800 131.600 197.100 131.700 196.200 131.700 Z M 196.200 130.200 C 196.700 130.200 197.200 130.100 197.600 129.900 C 198 129.700 198.300 129.400 198.600 128.900 C 198.900 128.500 199 128 199.200 127.400 C 199.300 126.800 199.400 126.100 199.400 125.400 C 199.400 124.700 199.300 124 199.200 123.400 C 199.100 122.800 198.900 122.300 198.600 121.900 C 198.300 121.500 198 121.200 197.600 120.900 C 197.200 120.700 196.800 120.600 196.200 120.600 C 195.700 120.600 195.200 120.700 194.800 120.900 C 194.400 121.100 194.100 121.400 193.800 121.900 C 193.500 122.300 193.400 122.800 193.200 123.400 C 193.100 124 193 124.700 193 125.400 C 193 126.100 193.100 126.800 193.200 127.400 C 193.300 128 193.500 128.500 193.800 128.900 C 194.100 129.300 194.400 129.600 194.800 129.900 C 195.200 130.100 195.700 130.200 196.200 130.200 Z " transform="matrix(1, 0, 0, 1, -182, -119)"/>
    <path id="ID0.7631707680411637" fill="#0071BC" d="M 205.300 120.800 L 202.300 120.800 C 202.300 120.700 202.300 120.600 202.300 120.400 C 202.300 120.300 202.300 120.100 202.300 120 C 202.300 119.900 202.300 119.700 202.300 119.600 C 202.300 119.500 202.300 119.300 202.300 119.200 L 209.900 119.200 C 209.900 119.300 209.900 119.400 209.900 119.600 C 209.900 119.700 209.900 119.800 209.900 120 C 209.900 120.100 209.900 120.300 209.900 120.400 C 209.900 120.500 209.900 120.700 209.900 120.800 L 206.900 120.800 L 206.900 131.500 C 206.700 131.500 206.400 131.600 206.100 131.600 C 205.800 131.600 205.500 131.600 205.300 131.500 L 205.300 120.800 Z " transform="matrix(1, 0, 0, 1, -182, -119)"/>
    <path id="ID0.05225383164361119" fill="#0071BC" d="M 216.800 128.700 L 212.400 128.700 L 211.600 131.500 C 211.500 131.500 211.300 131.500 211.200 131.600 C 211.100 131.600 210.900 131.600 210.800 131.600 C 210.700 131.600 210.500 131.600 210.400 131.600 C 210.300 131.600 210.100 131.600 210 131.500 L 213.700 119.300 C 213.800 119.300 214 119.300 214.100 119.200 C 214.200 119.100 214.400 119.200 214.600 119.200 C 214.700 119.200 214.900 119.200 215.100 119.200 C 215.300 119.200 215.400 119.200 215.600 119.300 L 219.300 131.500 C 219.200 131.500 219 131.500 218.900 131.600 C 218.700 131.600 218.600 131.600 218.400 131.600 C 218.300 131.600 218.100 131.600 218 131.600 C 217.900 131.600 217.700 131.600 217.600 131.500 L 216.800 128.700 Z M 212.900 127.200 L 216.400 127.200 L 214.600 121 L 212.900 127.200 Z " transform="matrix(1, 0, 0, 1, -182, -119)"/>
    <path id="ID0.6022707656957209" fill="#0071BC" d="M 221.500 119.300 C 221.600 119.300 221.700 119.300 221.900 119.200 C 222 119.200 222.200 119.200 222.300 119.200 C 222.400 119.200 222.600 119.200 222.700 119.200 C 222.800 119.200 223 119.200 223.100 119.300 L 223.100 130 L 227.600 130 C 227.600 130.100 227.600 130.300 227.600 130.400 C 227.600 130.500 227.600 130.700 227.600 130.800 C 227.600 131.100 227.600 131.300 227.600 131.600 L 221.500 131.600 L 221.500 119.300 Z " transform="matrix(1, 0, 0, 1, -182, -119)"/>
    <path id="ID0.5448310687206686" fill="#0071BC" d="M 234.100 119.300 C 234.500 119.300 234.900 119.200 235.400 119.200 C 235.900 119.200 236.400 119.100 236.900 119.100 C 238.900 119.100 240.400 119.600 241.400 120.700 C 242.400 121.800 242.900 123.400 242.900 125.400 C 242.900 127.500 242.400 129.100 241.400 130.100 C 240.400 131.100 238.900 131.600 236.900 131.600 C 236.400 131.600 235.900 131.600 235.400 131.500 C 234.900 131.500 234.500 131.400 234.100 131.400 L 234.100 119.300 Z M 235.700 130.100 C 235.800 130.100 236 130.100 236.300 130.200 C 236.500 130.200 236.700 130.200 237 130.200 C 237.600 130.200 238.200 130.100 238.700 130 C 239.200 129.800 239.700 129.600 240 129.200 C 240.400 128.800 240.700 128.300 240.900 127.700 C 241.100 127.100 241.200 126.300 241.200 125.400 C 241.200 124.600 241.100 123.800 240.900 123.200 C 240.700 122.600 240.400 122.100 240 121.700 C 239.600 121.300 239.200 121 238.700 120.900 C 238.200 120.700 237.600 120.600 237 120.600 C 236.800 120.600 236.600 120.600 236.300 120.600 C 236.100 120.600 235.900 120.600 235.700 120.700 L 235.700 130.100 Z " transform="matrix(1, 0, 0, 1, -182, -119)"/>
    <path id="ID0.9161423668265343" fill="#0071BC" d="M 251 128.700 L 246.600 128.700 L 245.800 131.500 C 245.700 131.500 245.500 131.500 245.400 131.600 C 245.300 131.700 245.100 131.600 245 131.600 C 244.900 131.600 244.700 131.600 244.600 131.600 C 244.500 131.600 244.300 131.600 244.200 131.500 L 247.900 119.300 C 248 119.300 248.200 119.300 248.300 119.200 C 248.500 119.200 248.600 119.200 248.800 119.200 C 248.900 119.200 249.100 119.200 249.300 119.200 C 249.500 119.200 249.600 119.200 249.800 119.300 L 253.500 131.500 C 253.400 131.500 253.200 131.500 253.100 131.600 C 253 131.700 252.800 131.600 252.600 131.600 C 252.500 131.600 252.300 131.600 252.200 131.600 C 252.100 131.600 251.900 131.600 251.800 131.500 L 251 128.700 Z M 247.100 127.200 L 250.600 127.200 L 248.800 121 L 247.100 127.200 Z " transform="matrix(1, 0, 0, 1, -182, -119)"/>
    <path id="ID0.05152360815554857" fill="#0071BC" d="M 194.200 145.700 C 194.400 146.200 194.600 146.700 194.600 147.100 C 194.200 147.300 193.700 147.500 193.200 147.500 C 192.700 147.600 192.200 147.600 191.700 147.600 C 190.900 147.600 190.100 147.500 189.500 147.200 C 188.800 146.900 188.300 146.500 187.800 146 C 187.300 145.500 187 144.800 186.700 144 C 186.500 143.200 186.300 142.400 186.300 141.400 C 186.300 140.400 186.400 139.500 186.700 138.800 C 186.900 138 187.300 137.300 187.800 136.800 C 188.300 136.200 188.800 135.800 189.500 135.500 C 190.200 135.200 190.900 135 191.700 135 C 192.300 135 192.800 135 193.300 135.100 C 193.700 135.200 194.100 135.300 194.500 135.400 C 194.500 135.700 194.400 135.900 194.400 136.100 C 194.300 136.300 194.200 136.600 194.200 136.800 C 194 136.700 193.900 136.700 193.700 136.600 C 193.600 136.600 193.400 136.500 193.200 136.500 C 193 136.500 192.800 136.400 192.600 136.400 C 192.400 136.400 192.200 136.400 191.900 136.400 C 190.700 136.400 189.800 136.800 189.200 137.700 C 188.600 138.500 188.200 139.700 188.200 141.300 C 188.200 142.100 188.300 142.800 188.500 143.400 C 188.700 144 188.900 144.500 189.300 144.900 C 189.600 145.300 190 145.600 190.500 145.800 C 191 146 191.500 146.100 192.100 146.100 C 192.500 146.100 193 146.100 193.300 146 C 193.600 145.900 193.900 145.900 194.200 145.700 Z " transform="matrix(1, 0, 0, 1, -182, -119)"/>
    <path id="ID0.1560047222301364" fill="#0071BC" d="M 201.300 147.700 C 200.500 147.700 199.800 147.500 199.100 147.200 C 198.400 146.900 198 146.500 197.600 145.900 C 197.200 145.300 196.900 144.700 196.700 143.900 C 196.500 143.100 196.400 142.300 196.400 141.400 C 196.400 140.500 196.500 139.600 196.700 138.900 C 196.900 138.100 197.200 137.500 197.600 136.900 C 198 136.300 198.500 135.900 199.100 135.600 C 199.700 135.300 200.400 135.100 201.300 135.100 C 202.100 135.100 202.800 135.300 203.500 135.600 C 204.100 135.900 204.600 136.400 205 136.900 C 205.400 137.500 205.700 138.100 205.900 138.900 C 206.100 139.700 206.200 140.500 206.200 141.400 C 206.200 142.300 206.100 143.200 205.900 143.900 C 205.700 144.700 205.400 145.300 205 145.900 C 204.600 146.500 204.100 146.900 203.500 147.200 C 202.800 147.600 202.100 147.700 201.300 147.700 Z M 201.300 146.200 C 201.800 146.200 202.300 146.100 202.700 145.900 C 203.100 145.700 203.400 145.400 203.700 144.900 C 204 144.500 204.100 144 204.300 143.400 C 204.400 142.800 204.500 142.100 204.500 141.400 C 204.500 140.700 204.400 140 204.300 139.400 C 204.200 138.800 204 138.300 203.700 137.900 C 203.400 137.500 203.100 137.200 202.700 136.900 C 202.300 136.700 201.900 136.600 201.300 136.600 C 200.800 136.600 200.300 136.700 199.900 136.900 C 199.500 137.100 199.200 137.400 198.900 137.900 C 198.600 138.400 198.500 138.800 198.300 139.400 C 198.200 140 198.100 140.700 198.100 141.400 C 198.100 142.100 198.200 142.800 198.300 143.400 C 198.400 144 198.600 144.500 198.900 144.900 C 199.200 145.300 199.500 145.600 199.900 145.900 C 200.300 146.200 200.800 146.200 201.300 146.200 Z " transform="matrix(1, 0, 0, 1, -182, -119)"/>
    <path id="ID0.2717994973063469" fill="#0071BC" d="M 209.300 135.300 C 209.400 135.300 209.600 135.300 209.700 135.200 C 209.900 135.200 210 135.200 210.200 135.200 C 210.300 135.200 210.500 135.200 210.700 135.200 C 210.900 135.200 211 135.200 211.100 135.300 L 214.100 142.900 L 217.100 135.300 C 217.200 135.300 217.300 135.300 217.500 135.200 C 217.700 135.100 217.800 135.200 218 135.200 C 218.100 135.200 218.300 135.200 218.500 135.200 C 218.700 135.200 218.800 135.200 218.900 135.300 L 219.400 147.500 C 219.300 147.500 219.100 147.500 219 147.600 C 218.900 147.600 218.700 147.600 218.600 147.600 C 218.500 147.600 218.300 147.600 218.200 147.600 C 218.100 147.600 217.900 147.600 217.800 147.500 L 217.400 138 L 214.600 145 C 214.400 145 214.200 145.100 213.900 145.100 C 213.700 145.100 213.500 145.100 213.300 145 L 210.600 138 L 210.200 147.600 C 210.100 147.600 210 147.600 209.800 147.700 C 209.700 147.700 209.500 147.700 209.400 147.700 C 209.300 147.700 209.100 147.700 209 147.700 C 208.900 147.700 208.700 147.700 208.600 147.600 L 209.300 135.300 Z " transform="matrix(1, 0, 0, 1, -182, -119)"/>
    <path id="ID0.8509253235533834" fill="#0071BC" d="M 222.500 135.300 C 222.700 135.300 222.800 135.300 223.100 135.200 C 223.300 135.200 223.500 135.200 223.800 135.100 C 224 135.100 224.300 135.100 224.500 135.100 C 224.700 135.100 225 135.100 225.200 135.100 C 225.800 135.100 226.300 135.200 226.900 135.300 C 227.400 135.400 227.900 135.600 228.300 135.900 C 228.700 136.200 229 136.600 229.200 137.100 C 229.400 137.600 229.500 138.200 229.500 139 C 229.500 139.800 229.400 140.500 229.100 141 C 228.800 141.500 228.500 141.900 228.100 142.300 C 227.700 142.600 227.200 142.800 226.700 143 C 226.200 143.100 225.600 143.200 225.100 143.200 C 224.900 143.200 224.700 143.200 224.600 143.200 C 224.400 143.200 224.300 143.200 224.100 143.200 L 224.100 147.600 C 223.800 147.600 223.600 147.700 223.300 147.700 C 223.200 147.700 223 147.700 222.900 147.700 C 222.800 147.700 222.600 147.700 222.500 147.700 L 222.500 135.300 Z M 224.100 141.600 C 224.300 141.600 224.400 141.600 224.500 141.700 C 224.600 141.700 224.800 141.700 225.100 141.700 C 225.400 141.700 225.800 141.700 226.100 141.600 C 226.400 141.500 226.700 141.400 227 141.200 C 227.300 141 227.500 140.700 227.600 140.400 C 227.800 140.100 227.800 139.600 227.800 139.100 C 227.800 138.600 227.700 138.200 227.600 137.900 C 227.500 137.600 227.300 137.300 227.100 137.100 C 226.900 136.900 226.600 136.800 226.300 136.700 C 226 136.600 225.600 136.600 225.200 136.600 C 224.800 136.600 224.500 136.600 224.200 136.700 L 224.200 141.600 Z " transform="matrix(1, 0, 0, 1, -182, -119)"/>
    <path id="ID0.49509261455386877" fill="#0071BC" d="M 232 135.300 C 232.200 135.300 232.400 135.300 232.600 135.200 C 232.800 135.200 233 135.200 233.200 135.100 C 233.400 135.100 233.600 135.100 233.800 135.100 C 234 135.100 234.200 135.100 234.500 135.100 C 235 135.100 235.600 135.200 236.100 135.300 C 236.600 135.400 237.100 135.600 237.500 135.900 C 237.900 136.200 238.300 136.600 238.500 137 C 238.800 137.500 238.900 138.100 238.900 138.800 C 238.900 139.200 238.800 139.600 238.700 140 C 238.600 140.400 238.400 140.700 238.200 141 C 238 141.300 237.700 141.500 237.500 141.700 C 237.200 141.900 237 142.100 236.700 142.200 L 236.500 142.300 L 239.800 147.500 C 239.500 147.500 239.200 147.600 238.800 147.600 C 238.500 147.600 238.200 147.600 237.900 147.500 L 234.200 141.800 L 234.200 141.700 L 234.300 141.700 C 234.600 141.600 234.900 141.500 235.200 141.400 C 235.500 141.300 235.800 141.100 236.100 140.900 C 236.400 140.700 236.600 140.400 236.800 140.100 C 237 139.800 237.100 139.400 237.100 139 C 237.100 138.200 236.900 137.600 236.400 137.200 C 235.900 136.800 235.300 136.600 234.600 136.600 C 234.400 136.600 234.300 136.600 234.100 136.600 C 233.900 136.600 233.800 136.600 233.600 136.700 L 233.600 147.600 C 233.500 147.600 233.400 147.600 233.200 147.600 C 233.100 147.600 232.900 147.600 232.800 147.600 C 232.700 147.600 232.500 147.600 232.400 147.600 C 232.300 147.600 232.100 147.600 232 147.600 L 232 135.300 Z " transform="matrix(1, 0, 0, 1, -182, -119)"/>
    <path id="ID0.3631086968816817" fill="#0071BC" d="M 247.600 144.700 L 243.200 144.700 L 242.400 147.500 C 242.300 147.500 242.100 147.500 242 147.600 C 241.900 147.700 241.700 147.600 241.600 147.600 C 241.500 147.600 241.300 147.600 241.200 147.600 C 241.100 147.600 240.900 147.600 240.800 147.500 L 244.500 135.300 C 244.600 135.300 244.800 135.300 244.900 135.200 C 245.100 135.200 245.200 135.200 245.400 135.200 C 245.500 135.200 245.700 135.200 245.900 135.200 C 246.100 135.200 246.200 135.200 246.400 135.300 L 250.100 147.500 C 250 147.500 249.800 147.500 249.700 147.600 C 249.600 147.700 249.400 147.600 249.200 147.600 C 249.100 147.600 248.900 147.600 248.800 147.600 C 248.700 147.600 248.500 147.600 248.400 147.500 L 247.600 144.700 Z M 243.700 143.200 L 247.200 143.200 L 245.400 137 L 243.700 143.200 Z " transform="matrix(1, 0, 0, 1, -182, -119)"/>
  </g>
  <g id="ID0.7875838712789118">
    <path id="ID0.6065214555710554" fill="#0071BC" d="M 288.200 119.300 C 288.300 119.300 288.500 119.300 288.600 119.200 C 288.700 119.100 288.900 119.200 289.100 119.200 C 289.200 119.200 289.400 119.200 289.600 119.200 C 289.800 119.200 289.900 119.200 290.100 119.300 L 293 129.800 L 295.900 119.300 C 296.200 119.300 296.500 119.200 296.800 119.200 C 296.900 119.200 297.100 119.200 297.200 119.200 C 297.400 119.200 297.500 119.200 297.600 119.200 L 293.900 131.400 C 293.800 131.400 293.600 131.400 293.400 131.500 C 293.200 131.500 293.100 131.500 292.900 131.500 C 292.800 131.500 292.600 131.500 292.400 131.500 C 292.200 131.500 292.100 131.500 291.900 131.400 L 288.200 119.300 Z " transform="matrix(1, 0, 0, 1, -182, -119)"/>
    <path id="ID0.9297585054300725" fill="#0071BC" d="M 304.700 128.700 L 300.300 128.700 L 299.500 131.500 C 299.400 131.500 299.200 131.500 299.100 131.600 C 299 131.600 298.800 131.600 298.700 131.600 C 298.600 131.600 298.400 131.600 298.300 131.600 C 298.200 131.600 298 131.600 297.900 131.500 L 301.600 119.300 C 301.700 119.300 301.900 119.300 302 119.200 C 302.200 119.200 302.300 119.200 302.500 119.200 C 302.600 119.200 302.800 119.200 303 119.200 C 303.200 119.200 303.300 119.200 303.500 119.300 L 307.200 131.500 C 307.100 131.500 306.900 131.500 306.800 131.600 C 306.700 131.700 306.500 131.600 306.300 131.600 C 306.200 131.600 306 131.600 305.900 131.600 C 305.800 131.600 305.600 131.600 305.500 131.500 L 304.700 128.700 Z M 300.800 127.200 L 304.300 127.200 L 302.500 121 L 300.800 127.200 Z " transform="matrix(1, 0, 0, 1, -182, -119)"/>
    <path id="ID0.2324022282846272" fill="#0071BC" d="M 309.400 119.300 C 309.500 119.300 309.600 119.300 309.800 119.200 C 309.900 119.200 310.100 119.200 310.200 119.200 C 310.300 119.200 310.500 119.200 310.600 119.200 C 310.700 119.200 310.900 119.200 311 119.300 L 311 130 L 315.500 130 C 315.500 130.100 315.500 130.300 315.500 130.400 C 315.500 130.500 315.500 130.700 315.500 130.800 C 315.500 131.100 315.500 131.300 315.500 131.600 L 309.400 131.600 L 309.400 119.300 Z " transform="matrix(1, 0, 0, 1, -182, -119)"/>
    <path id="ID0.7241782238706946" fill="#0071BC" d="M 321.700 131.700 C 320.900 131.700 320.200 131.500 319.500 131.200 C 318.900 130.900 318.400 130.500 318 129.900 C 317.600 129.300 317.300 128.700 317.100 127.900 C 316.900 127.100 316.800 126.300 316.800 125.400 C 316.800 124.500 316.900 123.600 317.100 122.900 C 317.300 122.100 317.600 121.500 318 120.900 C 318.400 120.300 318.900 119.900 319.500 119.600 C 320.100 119.300 320.800 119.100 321.700 119.100 C 322.500 119.100 323.200 119.300 323.900 119.600 C 324.500 119.900 325 120.400 325.400 120.900 C 325.800 121.500 326.100 122.100 326.300 122.900 C 326.500 123.700 326.600 124.500 326.600 125.400 C 326.600 126.300 326.500 127.200 326.300 127.900 C 326.100 128.700 325.800 129.300 325.400 129.900 C 325 130.500 324.500 130.900 323.900 131.200 C 323.300 131.600 322.600 131.700 321.700 131.700 Z M 321.700 130.200 C 322.200 130.200 322.700 130.100 323.100 129.900 C 323.500 129.700 323.800 129.400 324.100 128.900 C 324.400 128.500 324.500 128 324.700 127.400 C 324.800 126.800 324.900 126.100 324.900 125.400 C 324.900 124.700 324.800 124 324.700 123.400 C 324.600 122.800 324.400 122.300 324.100 121.900 C 323.800 121.500 323.500 121.200 323.100 120.900 C 322.700 120.700 322.300 120.600 321.700 120.600 C 321.200 120.600 320.700 120.700 320.300 120.900 C 319.900 121.100 319.600 121.400 319.300 121.900 C 319 122.300 318.900 122.800 318.700 123.400 C 318.600 124 318.500 124.700 318.500 125.400 C 318.500 126.100 318.600 126.800 318.700 127.400 C 318.800 128 319 128.500 319.300 128.900 C 319.600 129.300 319.900 129.600 320.300 129.900 C 320.700 130.100 321.200 130.200 321.700 130.200 Z " transform="matrix(1, 0, 0, 1, -182, -119)"/>
    <path id="ID0.7274636067450047" fill="#0071BC" d="M 329.400 119.300 C 329.600 119.300 329.800 119.300 330 119.200 C 330.200 119.200 330.400 119.200 330.600 119.100 C 330.800 119.100 331 119.100 331.200 119.100 C 331.400 119.100 331.600 119.100 331.900 119.100 C 332.400 119.100 333 119.200 333.500 119.300 C 334 119.400 334.500 119.600 334.900 119.900 C 335.300 120.200 335.700 120.600 335.900 121 C 336.200 121.500 336.300 122.100 336.300 122.800 C 336.300 123.200 336.200 123.600 336.100 124 C 336 124.400 335.800 124.700 335.600 125 C 335.400 125.300 335.100 125.500 334.900 125.700 C 334.600 125.900 334.400 126.100 334.100 126.200 L 333.900 126.300 L 337.200 131.500 C 336.900 131.500 336.600 131.600 336.200 131.600 C 335.900 131.600 335.600 131.600 335.300 131.500 L 331.600 125.800 L 331.600 125.700 L 331.700 125.700 C 332 125.600 332.300 125.500 332.600 125.400 C 332.900 125.300 333.200 125.100 333.500 124.900 C 333.800 124.700 334 124.400 334.200 124.100 C 334.400 123.800 334.500 123.400 334.500 123 C 334.500 122.200 334.300 121.600 333.800 121.200 C 333.300 120.800 332.700 120.600 332 120.600 C 331.800 120.600 331.700 120.600 331.500 120.600 C 331.300 120.600 331.200 120.600 331 120.700 L 331 131.600 C 330.900 131.600 330.800 131.600 330.600 131.600 C 330.500 131.600 330.300 131.600 330.200 131.600 C 330.100 131.600 329.900 131.600 329.800 131.600 C 329.700 131.600 329.500 131.600 329.400 131.600 L 329.400 119.300 Z " transform="matrix(1, 0, 0, 1, -182, -119)"/>
    <path id="ID0.2699335557408631" fill="#0071BC" d="M 274.400 135.300 L 280.700 135.300 C 280.700 135.500 280.700 135.800 280.700 136 C 280.700 136.100 280.700 136.300 280.700 136.400 C 280.700 136.500 280.700 136.700 280.700 136.800 L 276 136.800 L 276 140.300 L 279.700 140.300 C 279.700 140.400 279.700 140.500 279.700 140.700 C 279.700 140.900 279.700 141 279.700 141.100 C 279.700 141.200 279.700 141.400 279.700 141.500 C 279.700 141.600 279.700 141.800 279.700 141.900 L 276 141.900 L 276 146.100 L 280.800 146.100 C 280.800 146.300 280.800 146.600 280.800 146.800 C 280.800 146.900 280.800 147.100 280.800 147.200 C 280.800 147.300 280.800 147.500 280.800 147.600 L 274.400 147.600 L 274.400 135.300 Z " transform="matrix(1, 0, 0, 1, -182, -119)"/>
    <path id="ID0.8853513230569661" fill="#0071BC" d="M 283.500 135.300 C 283.600 135.300 283.700 135.300 283.900 135.200 C 284 135.200 284.200 135.200 284.300 135.200 C 284.400 135.200 284.500 135.200 284.700 135.200 C 284.800 135.200 285 135.200 285.100 135.300 L 290.100 144.500 L 290.100 135.300 C 290.200 135.300 290.400 135.300 290.500 135.200 C 290.600 135.200 290.800 135.200 290.900 135.200 C 291 135.200 291.100 135.200 291.300 135.200 C 291.400 135.200 291.600 135.200 291.700 135.300 L 291.700 147.500 C 291.600 147.500 291.500 147.500 291.300 147.600 C 291.200 147.600 291 147.600 290.900 147.600 C 290.800 147.600 290.700 147.600 290.500 147.600 C 290.400 147.600 290.200 147.600 290.100 147.500 L 285.100 138.400 L 285.100 147.500 C 285 147.500 284.900 147.500 284.700 147.600 C 284.600 147.600 284.400 147.600 284.300 147.600 C 284.200 147.600 284 147.600 283.900 147.600 C 283.800 147.600 283.600 147.600 283.500 147.500 L 283.500 135.300 Z " transform="matrix(1, 0, 0, 1, -182, -119)"/>
    <path id="ID0.15422274032607675" fill="#0071BC" d="M 296.800 136.800 L 293.800 136.800 C 293.800 136.700 293.800 136.600 293.800 136.400 C 293.800 136.300 293.800 136.100 293.800 136 C 293.800 135.900 293.800 135.700 293.800 135.600 C 293.800 135.500 293.800 135.300 293.800 135.200 L 301.400 135.200 C 301.400 135.300 301.400 135.400 301.400 135.600 C 301.400 135.700 301.400 135.800 301.400 136 C 301.400 136.100 301.400 136.300 301.400 136.400 C 301.400 136.500 301.400 136.700 301.400 136.800 L 298.400 136.800 L 298.400 147.500 C 298.200 147.500 297.900 147.600 297.600 147.600 C 297.300 147.600 297 147.600 296.800 147.500 L 296.800 136.800 Z " transform="matrix(1, 0, 0, 1, -182, -119)"/>
    <path id="ID0.39993793051689863" fill="#0071BC" d="M 303.700 135.300 C 303.900 135.300 304.100 135.300 304.300 135.200 C 304.500 135.200 304.700 135.200 304.900 135.100 C 305.100 135.100 305.300 135.100 305.500 135.100 C 305.700 135.100 305.900 135.100 306.200 135.100 C 306.700 135.100 307.300 135.200 307.800 135.300 C 308.300 135.400 308.800 135.600 309.200 135.900 C 309.600 136.200 310 136.600 310.200 137 C 310.500 137.500 310.600 138.100 310.600 138.800 C 310.600 139.200 310.500 139.600 310.400 140 C 310.300 140.400 310.100 140.700 309.900 141 C 309.700 141.300 309.400 141.500 309.200 141.700 C 308.900 141.900 308.700 142.100 308.400 142.200 L 308.200 142.300 L 311.500 147.500 C 311.200 147.500 310.900 147.600 310.500 147.600 C 310.200 147.600 309.900 147.600 309.600 147.500 L 305.900 141.800 L 305.900 141.700 L 306 141.700 C 306.300 141.600 306.600 141.500 306.900 141.400 C 307.200 141.300 307.500 141.100 307.800 140.900 C 308.100 140.700 308.300 140.400 308.500 140.100 C 308.700 139.800 308.800 139.400 308.800 139 C 308.800 138.200 308.600 137.600 308.100 137.200 C 307.600 136.800 307 136.600 306.300 136.600 C 306.100 136.600 306 136.600 305.800 136.600 C 305.600 136.600 305.500 136.600 305.300 136.700 L 305.300 147.600 C 305.200 147.600 305.100 147.600 304.900 147.600 C 304.800 147.600 304.600 147.600 304.500 147.600 C 304.400 147.600 304.200 147.600 304.100 147.600 C 303.900 147.600 303.800 147.600 303.700 147.600 L 303.700 135.300 Z " transform="matrix(1, 0, 0, 1, -182, -119)"/>
    <path id="ID0.6226245588622987" fill="#0071BC" d="M 313.600 135.300 L 319.900 135.300 C 319.900 135.500 319.900 135.800 319.900 136 C 319.900 136.100 319.900 136.300 319.900 136.400 C 319.900 136.500 319.900 136.700 319.900 136.800 L 315.200 136.800 L 315.200 140.300 L 318.900 140.300 C 318.900 140.400 318.900 140.500 318.900 140.700 C 318.900 140.800 318.900 141 318.900 141.100 C 318.900 141.200 318.900 141.400 318.900 141.500 C 318.900 141.600 318.900 141.800 318.900 141.900 L 315.200 141.900 L 315.200 146.100 L 320 146.100 C 320 146.300 320 146.600 320 146.800 C 320 146.900 320 147.100 320 147.200 C 320 147.300 320 147.500 320 147.600 L 313.600 147.600 L 313.600 135.300 Z " transform="matrix(1, 0, 0, 1, -182, -119)"/>
    <path id="ID0.8219935987144709" fill="#0071BC" d="M 329.300 141.200 C 329.400 141.200 329.600 141.200 329.700 141.100 C 329.800 141 330 141.100 330.100 141.100 C 330.200 141.100 330.400 141.100 330.500 141.100 C 330.600 141.100 330.800 141.100 330.900 141.200 L 330.900 147.200 C 330.700 147.300 330.400 147.400 330.200 147.500 C 330 147.600 329.700 147.600 329.400 147.700 C 329.100 147.700 328.800 147.800 328.500 147.800 C 328.200 147.800 327.900 147.800 327.700 147.800 C 326.800 147.800 326.100 147.700 325.400 147.400 C 324.700 147.100 324.100 146.700 323.700 146.200 C 323.200 145.700 322.900 145 322.600 144.200 C 322.300 143.400 322.200 142.600 322.200 141.600 C 322.200 140.600 322.300 139.700 322.600 139 C 322.900 138.200 323.200 137.500 323.700 137 C 324.200 136.400 324.700 136 325.400 135.700 C 326.100 135.400 326.800 135.200 327.600 135.200 C 328.200 135.200 328.700 135.200 329.200 135.300 C 329.600 135.400 330.100 135.500 330.400 135.600 C 330.400 135.900 330.300 136.100 330.300 136.300 C 330.200 136.500 330.100 136.800 330.100 137 C 329.800 136.900 329.500 136.800 329.100 136.700 C 328.700 136.600 328.300 136.600 327.800 136.600 C 327.200 136.600 326.700 136.700 326.300 136.900 C 325.800 137.100 325.400 137.400 325.100 137.800 C 324.800 138.200 324.500 138.700 324.300 139.300 C 324.100 139.900 324 140.600 324 141.400 C 324 142.200 324.100 142.900 324.300 143.500 C 324.500 144.100 324.700 144.600 325.100 145 C 325.400 145.400 325.800 145.700 326.300 145.900 C 326.800 146.100 327.300 146.200 327.800 146.200 C 328.100 146.200 328.400 146.200 328.700 146.100 C 329 146.100 329.200 146 329.400 146 L 329.400 141.200 Z " transform="matrix(1, 0, 0, 1, -182, -119)"/>
    <path id="ID0.24697730178013444" fill="#0071BC" d="M 333.900 135.300 C 334.200 135.300 334.400 135.200 334.700 135.200 C 335 135.200 335.300 135.200 335.500 135.300 L 335.500 142.200 C 335.500 142.900 335.500 143.500 335.600 144 C 335.700 144.500 335.800 144.900 336 145.200 C 336.200 145.500 336.400 145.700 336.800 145.900 C 337.100 146 337.500 146.100 338 146.100 C 338.500 146.100 338.800 146 339.100 145.900 C 339.400 145.800 339.700 145.500 339.800 145.200 C 340 144.900 340.100 144.500 340.200 144 C 340.300 143.500 340.300 142.900 340.300 142.200 L 340.300 135.300 C 340.600 135.300 340.800 135.200 341.100 135.200 C 341.400 135.200 341.700 135.200 341.900 135.300 L 341.900 142.500 C 341.900 143.300 341.800 144 341.700 144.700 C 341.600 145.400 341.300 145.900 341 146.300 C 340.700 146.700 340.300 147.100 339.700 147.300 C 339.200 147.500 338.500 147.600 337.800 147.600 C 337.100 147.600 336.400 147.500 335.900 147.300 C 335.400 147.100 335 146.700 334.600 146.300 C 334.300 145.900 334 145.300 333.900 144.700 C 333.800 144.100 333.700 143.300 333.700 142.500 L 333.700 135.300 Z " transform="matrix(1, 0, 0, 1, -182, -119)"/>
    <path id="ID0.29295587725937366" fill="#0071BC" d="M 345.200 135.300 L 351.500 135.300 C 351.500 135.500 351.500 135.800 351.500 136 C 351.500 136.100 351.500 136.300 351.500 136.400 C 351.500 136.500 351.500 136.700 351.500 136.800 L 346.800 136.800 L 346.800 140.300 L 350.500 140.300 C 350.500 140.400 350.500 140.500 350.500 140.700 C 350.500 140.800 350.500 141 350.500 141.100 C 350.500 141.200 350.500 141.400 350.500 141.500 C 350.500 141.600 350.500 141.800 350.500 141.900 L 346.800 141.900 L 346.800 146.100 L 351.600 146.100 C 351.600 146.300 351.600 146.600 351.600 146.800 C 351.600 146.900 351.600 147.100 351.600 147.200 C 351.600 147.300 351.600 147.500 351.600 147.600 L 345.200 147.600 L 345.200 135.300 Z " transform="matrix(1, 0, 0, 1, -182, -119)"/>
  </g>
  <g id="ID0.6843525841832161">
    <path id="ID0.08876062836498022" fill="#0071BC" d="M 380.900 129.200 L 377.900 129.200 C 377.900 129.100 377.900 129 377.900 128.800 C 377.900 128.700 377.900 128.500 377.900 128.400 C 377.900 128.300 377.900 128.100 377.900 128 C 377.900 127.900 377.900 127.700 377.900 127.600 L 385.500 127.600 C 385.500 127.700 385.500 127.800 385.500 128 C 385.500 128.100 385.500 128.200 385.500 128.400 C 385.500 128.500 385.500 128.700 385.500 128.800 C 385.500 128.900 385.500 129.100 385.500 129.200 L 382.500 129.200 L 382.500 139.900 C 382.300 139.900 382 140 381.700 140 C 381.400 140 381.100 140 380.900 139.900 L 380.900 129.200 Z " transform="matrix(1, 0, 0, 1, -182, -119)"/>
    <path id="ID0.7568346848711371" fill="#0071BC" d="M 387.900 127.600 C 388.100 127.600 388.300 127.600 388.500 127.500 C 388.700 127.500 388.900 127.500 389.100 127.400 C 389.300 127.400 389.500 127.400 389.700 127.400 C 389.900 127.400 390.100 127.400 390.400 127.400 C 390.900 127.400 391.500 127.500 392 127.600 C 392.500 127.700 393 127.900 393.400 128.200 C 393.800 128.500 394.200 128.900 394.400 129.300 C 394.700 129.800 394.800 130.400 394.800 131.100 C 394.800 131.500 394.700 131.900 394.600 132.300 C 394.500 132.700 394.300 133 394.100 133.300 C 393.900 133.600 393.600 133.800 393.400 134 C 393.100 134.200 392.900 134.400 392.600 134.500 L 392.400 134.600 L 395.700 139.800 C 395.400 139.800 395.100 139.900 394.700 139.900 C 394.400 139.900 394.100 139.900 393.800 139.800 L 390.100 134.100 L 390.100 134 L 390.200 134 C 390.500 133.900 390.800 133.800 391.100 133.700 C 391.400 133.600 391.700 133.400 392 133.200 C 392.300 133 392.500 132.700 392.700 132.400 C 392.900 132.100 393 131.700 393 131.300 C 393 130.500 392.800 129.900 392.300 129.500 C 391.800 129.100 391.200 128.900 390.500 128.900 C 390.300 128.900 390.200 128.900 390 128.900 C 389.800 128.900 389.700 128.900 389.500 129 L 389.500 139.900 C 389.400 139.900 389.300 139.900 389.100 139.900 C 389 139.900 388.800 139.900 388.700 139.900 C 388.600 139.900 388.400 139.900 388.300 139.900 C 388.200 139.900 388 139.900 387.900 139.900 L 387.900 127.600 Z " transform="matrix(1, 0, 0, 1, -182, -119)"/>
    <path id="ID0.3574100462719798" fill="#0071BC" d="M 402 140.100 C 401.200 140.100 400.500 139.900 399.800 139.600 C 399.200 139.300 398.700 138.900 398.300 138.300 C 397.900 137.700 397.600 137.100 397.400 136.300 C 397.200 135.500 397.100 134.700 397.100 133.800 C 397.100 132.900 397.200 132 397.400 131.300 C 397.600 130.500 397.900 129.900 398.300 129.300 C 398.700 128.700 399.200 128.300 399.800 128 C 400.400 127.700 401.100 127.500 402 127.500 C 402.800 127.500 403.500 127.700 404.200 128 C 404.800 128.300 405.300 128.800 405.700 129.300 C 406.100 129.900 406.400 130.500 406.600 131.300 C 406.800 132.100 406.900 132.900 406.900 133.800 C 406.900 134.700 406.800 135.600 406.600 136.300 C 406.400 137.100 406.100 137.700 405.700 138.300 C 405.300 138.900 404.800 139.300 404.200 139.600 C 403.500 139.900 402.800 140.100 402 140.100 Z M 402 138.600 C 402.500 138.600 403 138.500 403.400 138.300 C 403.800 138.100 404.100 137.800 404.400 137.300 C 404.700 136.900 404.800 136.400 405 135.800 C 405.100 135.200 405.200 134.500 405.200 133.800 C 405.200 133.100 405.100 132.400 405 131.800 C 404.900 131.200 404.700 130.700 404.400 130.300 C 404.100 129.900 403.800 129.600 403.400 129.300 C 403 129.100 402.600 129 402 129 C 401.500 129 401 129.100 400.600 129.300 C 400.200 129.500 399.900 129.800 399.600 130.300 C 399.300 130.700 399.200 131.200 399 131.800 C 398.900 132.400 398.800 133.100 398.800 133.800 C 398.800 134.500 398.900 135.200 399 135.800 C 399.100 136.400 399.300 136.900 399.600 137.300 C 399.900 137.700 400.200 138 400.600 138.300 C 401 138.500 401.500 138.600 402 138.600 Z " transform="matrix(1, 0, 0, 1, -182, -119)"/>
    <path id="ID0.4520089002326131" fill="#0071BC" d="M 417 138.100 C 417.200 138.600 417.400 139.100 417.400 139.500 C 417 139.700 416.500 139.900 416 139.900 C 415.500 140 415 140 414.500 140 C 413.700 140 412.900 139.900 412.300 139.600 C 411.600 139.300 411.100 138.900 410.600 138.400 C 410.100 137.900 409.800 137.200 409.500 136.400 C 409.300 135.600 409.100 134.800 409.100 133.800 C 409.100 132.800 409.200 131.900 409.500 131.200 C 409.700 130.400 410.100 129.700 410.600 129.200 C 411.100 128.600 411.600 128.200 412.300 127.900 C 413 127.600 413.700 127.400 414.500 127.400 C 415.100 127.400 415.600 127.400 416.100 127.500 C 416.500 127.600 416.900 127.700 417.300 127.800 C 417.300 128.100 417.200 128.300 417.200 128.500 C 417.100 128.700 417 129 417 129.200 C 416.800 129.100 416.700 129.100 416.500 129 C 416.300 129 416.200 128.900 416 128.900 C 415.800 128.900 415.600 128.800 415.400 128.800 C 415.200 128.800 415 128.800 414.700 128.800 C 413.500 128.800 412.600 129.200 412 130.100 C 411.400 130.900 411 132.100 411 133.700 C 411 134.500 411.100 135.200 411.300 135.800 C 411.500 136.400 411.700 136.900 412.100 137.300 C 412.500 137.700 412.800 138 413.300 138.200 C 413.800 138.400 414.300 138.500 414.900 138.500 C 415.300 138.500 415.800 138.500 416.100 138.400 C 416.300 138.300 416.700 138.200 417 138.100 Z " transform="matrix(1, 0, 0, 1, -182, -119)"/>
    <path id="ID0.23313097143545747" fill="#0071BC" d="M 424.100 140.100 C 423.300 140.100 422.600 139.900 421.900 139.600 C 421.300 139.300 420.800 138.900 420.400 138.300 C 420 137.700 419.700 137.100 419.500 136.300 C 419.300 135.500 419.200 134.700 419.200 133.800 C 419.200 132.900 419.300 132 419.500 131.300 C 419.700 130.500 420 129.900 420.400 129.300 C 420.800 128.700 421.300 128.300 421.900 128 C 422.500 127.700 423.200 127.500 424.100 127.500 C 425 127.500 425.600 127.700 426.300 128 C 426.900 128.300 427.400 128.800 427.800 129.300 C 428.200 129.900 428.500 130.500 428.700 131.300 C 428.900 132.100 429 132.900 429 133.800 C 429 134.700 428.900 135.600 428.700 136.300 C 428.500 137.100 428.200 137.700 427.800 138.300 C 427.400 138.900 426.900 139.300 426.300 139.600 C 425.700 139.900 424.900 140.100 424.100 140.100 Z M 424.100 138.600 C 424.600 138.600 425.100 138.500 425.500 138.300 C 425.900 138.100 426.200 137.800 426.500 137.300 C 426.800 136.900 426.900 136.400 427.100 135.800 C 427.200 135.200 427.300 134.500 427.300 133.800 C 427.300 133.100 427.200 132.400 427.100 131.800 C 427 131.200 426.800 130.700 426.500 130.300 C 426.200 129.900 425.900 129.600 425.500 129.300 C 425.100 129.100 424.700 129 424.100 129 C 423.600 129 423.100 129.100 422.700 129.300 C 422.300 129.500 422 129.800 421.700 130.300 C 421.400 130.700 421.300 131.200 421.100 131.800 C 421 132.400 420.900 133.100 420.900 133.800 C 420.900 134.500 421 135.200 421.100 135.800 C 421.200 136.400 421.400 136.900 421.700 137.300 C 422 137.700 422.300 138 422.700 138.300 C 423.100 138.500 423.500 138.600 424.100 138.600 Z " transform="matrix(1, 0, 0, 1, -182, -119)"/>
  </g>
  <path id="ID0.5419489680789411" fill="none" stroke="#0071BC" stroke-width="1.9371" d="M 182 188 L 252.400 188 " transform="matrix(1, 0, 0, 1, -182, -127)"/>
  <path id="ID0.8317990461364388" fill="none" stroke="#0071BC" stroke-width="1.9371" d="M 277.700 188 L 348 188 " transform="matrix(1, 0, 0, 1, -182, -127)"/>
  <path id="ID0.5185330472886562" fill="none" stroke="#0071BC" stroke-width="1.9371" d="M 369.600 188 L 440 188 " transform="matrix(1, 0, 0, 1, -182, -127)"/>
</svg>